<?xml version="1.0" standalone="no"?>
<!DOCTYPE svg PUBLIC "-//W3C//DTD SVG 20010904//EN"
 "http://www.w3.org/TR/2001/REC-SVG-20010904/DTD/svg10.dtd">
<svg version="1.0" xmlns="http://www.w3.org/2000/svg"
 width="400.000000pt" height="400.000000pt" viewBox="0 0 400.000000 400.000000"
 preserveAspectRatio="xMidYMid meet">
<metadata>
Created by potrace 1.14, written by Peter Selinger 2001-2017
</metadata>
<g transform="translate(0.000000,400.000000) scale(0.100000,-0.100000)"
fill="#000000" stroke="none">
<path d="M169 2548 c-5 -14 -2 -783 3 -791 4 -7 37 -12 83 -12 72 -1 75 0 75
22 0 24 14 31 26 12 12 -20 88 -49 130 -49 84 0 156 41 206 119 25 38 29 42
28 21 -1 -14 -2 -48 -1 -75 l1 -51 83 1 82 1 0 237 c0 130 -2 238 -5 238 -3 1
-40 2 -82 3 l-78 2 0 -81 0 -80 -20 40 c-26 54 -50 80 -98 105 -78 41 -172 38
-237 -6 l-36 -24 1 117 c1 65 1 148 1 186 l-1 67 -80 0 c-44 0 -80 -1 -81 -2z
m321 -463 c41 -21 60 -53 60 -102 0 -110 -146 -150 -206 -58 -22 34 -14 108
16 140 33 35 85 43 130 20z"/>
<path d="M738 2493 c-27 -29 -31 -40 -29 -84 1 -33 44 -77 79 -81 95 -11 149
96 83 163 -40 40 -96 41 -133 2z"/>
<path d="M2498 2315 c-3 -82 -5 -90 -23 -91 -42 -2 -45 -5 -45 -35 l0 -30 -33
25 c-126 96 -313 62 -398 -72 l-29 -46 0 80 0 80 -80 0 c-74 -1 -85 -5 -81
-28 2 -13 -12 -9 -47 12 -19 12 -60 23 -97 26 -54 5 -72 2 -109 -15 -55 -27
-78 -47 -104 -90 l-20 -34 -21 41 c-32 62 -98 97 -182 97 -57 0 -72 -4 -105
-28 l-39 -27 -5 22 c-5 22 -10 23 -85 23 l-80 0 0 -240 0 -240 80 0 80 0 3
145 c1 89 7 154 14 168 29 57 122 66 155 16 13 -21 16 -53 17 -175 0 -93 4
-149 11 -150 5 -1 43 -2 83 -3 l72 -2 0 65 0 66 20 -33 c47 -77 119 -112 222
-108 35 1 77 10 95 19 18 9 34 17 36 17 3 0 3 -16 1 -37 -7 -79 -97 -123 -180
-89 -21 9 -45 24 -52 33 -11 15 -18 14 -82 -17 l-70 -34 16 -25 c46 -73 109
-103 226 -109 114 -6 184 15 242 72 53 53 66 97 66 232 l0 108 30 -47 c74
-116 228 -159 362 -99 44 20 108 74 108 92 0 10 -91 60 -110 60 -6 0 -23 -9
-39 -21 -62 -46 -165 -21 -182 44 -8 32 -25 29 202 29 l146 -1 -3 27 c-1 15
-5 46 -9 70 -5 33 -3 42 8 42 12 0 15 -26 19 -134 3 -128 5 -135 32 -171 37
-49 86 -69 151 -62 27 3 62 11 77 17 23 11 25 16 17 37 -14 37 -12 37 31 0 85
-72 223 -73 294 -2 15 15 16 14 16 -12 l0 -29 82 1 82 1 -1 239 0 239 -85 1
c-79 1 -85 0 -80 -18 3 -11 1 -18 -4 -15 -134 64 -220 63 -301 -7 l-42 -35 -3
37 -3 38 -47 -1 c-38 -1 -48 2 -49 15 0 9 -2 50 -2 91 l-2 75 -82 0 -82 0 -3
-90z m-210 -202 c12 -10 22 -27 24 -38 3 -19 -3 -20 -84 -21 -97 0 -107 8 -63
51 30 30 92 34 123 8z m-525 -35 c10 -5 25 -26 34 -45 41 -99 -54 -194 -150
-148 -112 53 -60 228 63 209 19 -3 43 -10 53 -16z m970 -5 c-5 -16 -7 -65 -7
-110 2 -73 0 -83 -16 -83 -32 0 -43 27 -42 103 0 125 -2 117 37 117 34 0 35
-1 28 -27z m323 12 c37 -15 64 -62 64 -111 0 -60 -75 -113 -139 -99 -32 7 -65
38 -79 75 -19 51 22 133 72 143 39 8 46 7 82 -8z"/>
<path d="M3545 2222 c-22 -11 -48 -27 -58 -36 -16 -16 -17 -16 -17 11 l0 29
-80 0 c-73 -1 -80 -3 -81 -21 -1 -11 -2 -174 -3 -362 l-1 -343 83 0 82 0 0
147 c0 140 1 145 18 130 34 -31 103 -49 164 -43 201 20 287 271 148 428 -63
72 -173 98 -255 60z m118 -162 c43 -48 34 -132 -19 -166 -52 -35 -123 -22
-158 28 -36 51 -9 145 48 168 39 17 99 3 129 -30z"/>
</g>
</svg>
